<svg width="99" height="172" viewBox="0 0 99 172" fill="none" xmlns="http://www.w3.org/2000/svg">
<path d="M1.21491 113.75C1.88288 112.622 2.0593 112.275 2.25821 112.18C4.57197 111.194 5.93571 111.272 5.84546 109.324C5.77078 107.781 7.44809 107.681 7.48348 106.808C7.55367 105.159 8.22731 105.075 8.44114 104.504C9.52249 101.624 11.371 101.038 11.4338 99.6145C11.4896 98.3438 13.4861 95.1993 14.3866 94.3726C15.3476 93.4886 14.6301 92.8869 15.282 91.44C15.3368 91.3168 19.7869 82.0062 19.6992 81.612C19.5002 80.7298 18.7781 81.871 17.7375 81.0362C18.1011 80.5472 17.6989 80.4772 17.7271 80.7707C17.7889 81.4721 17.062 81.4363 17.1343 82.3912C17.3007 84.6621 17.0064 84.6374 16.4271 86.001C14.3337 88.2913 14.5822 90.8904 13.2636 92.2808C11.4187 94.2259 11.8767 95.9938 9.88264 97.7599C9.41737 98.1724 8.68077 97.7495 8.68255 97.4578C8.74515 94.104 7.91923 94.5315 8.42932 93.6695C8.93336 92.8144 9.67499 92.411 9.67482 91.4579C9.67045 90.208 10.5606 89.1156 11.5519 88.1848C12.8876 86.9438 12.4787 85.011 14.3434 81.7883C15.1574 80.3729 15.566 81.3647 16.4552 79.4529C17.2347 77.7632 17.8304 75.6809 19.7603 73.5901C24.6909 68.2417 22.6905 65.1764 24.4028 61.3198C24.482 61.1446 24.4897 60.8703 24.4064 60.7365C23.4834 59.3446 25.0434 56.8089 23.4299 55.3153C21.3682 53.4062 25.4891 49.7701 25.5508 51.4732C25.5718 51.968 26.2401 51.7693 26.2552 52.2467C26.3097 54.1511 27.8046 57.3371 27.8039 57.4587C27.6918 58.0939 27.698 58.0627 28.2883 57.8327C28.174 57.8551 28.0539 57.8358 28.6832 58.1283C29.7019 58.6141 30.7827 55.819 32.8081 54.8133C33.5857 54.429 34.0833 53.6416 34.6882 53.0089C35.7951 51.8369 40.473 50.4705 41.6542 50.9149C43.525 51.6189 45.7037 50.1118 44.8704 51.7424C44.1039 53.2603 44.4526 54.2122 46.2714 52.5986C47.0811 51.8758 48.5506 52.3518 48.6168 53.3137C48.8049 55.97 47.721 55.3296 47.9238 56.5694C48.0917 57.6199 47.3057 58.3878 48.3615 59.6879C48.7372 60.1502 48.0982 63.4164 48.1398 65.4563C48.1715 67.1576 46.4357 66.9867 46.5882 67.6084C46.7467 68.2232 47.0114 68.1732 45.5051 70.7802C44.8977 71.8261 46.0005 71.3347 45.9114 72.1487C45.7401 73.6241 44.1862 78.1077 43.6674 79.402C43.4965 79.8392 42.8616 79.4928 42.8526 80.951C42.8419 83.6904 42.2842 81.5301 41.5634 85.3847C41.3708 86.426 40.212 86.2334 39.8087 86.3456C39.3211 86.4821 39.3625 86.5915 38.2558 89.6938C38.0968 90.1415 38.6842 90.3975 39.0043 90.1393C39.3304 89.8742 40.154 88.8459 41.0067 87.9774C41.6961 87.2719 42.3564 87.3961 42.5425 86.4468C42.903 84.5013 44.5075 83.5314 45.5178 81.4687C48.3781 75.6208 50.1462 75.4168 50.8183 74.6105C51.6718 73.5962 50.3878 74.235 53.3985 71.3159C54.1059 70.626 55.0545 70.7819 57.7137 69.3275C58.8774 68.6938 59.0794 69.0777 60.0528 69.1087C60.7738 69.1392 61.7151 68.507 62.0814 69.5473C62.7305 69.5396 64.1561 69.3298 63.5959 70.5147C61.2824 75.386 62.065 72.2207 60.2706 70.8259C58.6497 69.5701 53.8696 71.9225 52.1445 75.8902C51.5898 77.1654 49.9514 76.8106 49.03 79.0851C48.1635 81.2244 47.0209 81.3511 46.6927 82.9339C46.4697 84.022 44.7458 84.8633 44.5435 86.4948C42.0185 90.5586 42.6916 90.5717 41.79 90.5912C39.7404 90.6351 41.4208 91.9917 39.9382 93.6544C39.5812 94.0635 39.5593 94.6919 39.0767 94.9915C38.4735 95.357 38.5128 95.8188 38.5818 96.331C38.6797 97.0273 37.413 98.7684 36.6535 99.1318C35.2732 99.7965 36.7182 101.326 33.9922 101.904C33.0956 102.099 32.9815 103.074 33.8584 103.167C34.477 103.231 34.3385 104.246 33.7357 104.551C33.5126 104.662 33.4096 104.804 33.3781 105.045C32.9153 108.978 30.9819 109.685 30.5439 110.549C30.3493 110.929 30.3581 111.438 30.0919 111.731C29.1964 112.721 28.8519 114.021 27.9385 114.995C26.638 116.377 25.7546 117.341 25.9799 118.832C26.2571 120.674 23.3822 122.026 23.1392 122.449C21.9059 124.623 22.3963 125.026 19.074 126.806C16.6743 128.096 17.0309 131.681 16.06 134.181C15.7059 135.094 15.1421 134.919 15.133 135.425C15.1078 137.577 13.7662 137.799 13.4716 138.801C13.0421 140.246 10.4298 142.877 10.3633 142.942C9.16648 144.072 9.73578 144.336 8.33877 145.768C7.29862 146.828 3.10668 145.381 3.83353 144.451C4.19696 143.986 4.78018 143.946 5.16707 143.575C8.02624 140.865 7.06379 142.982 8.26407 139.326C10.1388 137.407 7.78654 137.81 10.5995 135.781C11.3716 136.296 11.0612 135.952 10.5504 136.935C10.3132 137.388 11.6161 138.562 10.9638 136.148C11.9934 134.847 11.6813 134.783 12.2247 134.365C12.2972 134.306 14.055 132.847 13.5226 132.443C13.2175 132.214 13.5295 132.291 12.4167 132.468C11.8933 132.549 13.3046 130.75 13.3532 130.671C14.1353 129.545 12.9642 129.415 14.2041 128.115C14.4945 127.806 15.0744 127.311 15.7715 125.366C16.7253 122.692 18.4137 123.737 18.7643 121.453C18.8643 120.82 19.6519 120.762 19.6764 120.686C20.549 118.527 20.0845 120.773 21.1637 116.278C21.3363 115.574 22.1815 115.921 22.4455 115.015C24.0476 109.535 26.8912 112.31 25.3355 110.207L25.335 110.304C27.4115 107.816 26.1851 106.904 28.3538 105.071C30.7218 103.069 27.8975 103.036 29.09 101.633C32.7462 97.3346 28.7906 98.5128 32.7497 93.8192C33.1189 93.384 33.835 93.2393 34.0609 93.6441C35.1482 95.6802 35.2255 93.8541 34.9394 93.4578C33.3599 91.322 33.792 93.385 35.1699 88.1981C36.1174 84.6025 37.7091 83.7681 37.7195 82.0668C37.722 81.6537 37.9348 81.2651 38.2074 80.9044C39.2373 79.5553 39.6737 76.0024 41.8046 72.4987C42.0596 72.0738 42.1458 71.7458 41.8895 71.3999L41.8887 71.5094C43.5712 69.5814 41.5057 69.2936 41.985 67.574C42.919 64.211 44.1551 64.5322 44.2926 62.6853C44.3581 61.8017 44.9196 60.386 44.6399 59.9464C44.1637 59.2009 44.2954 58.3019 44.3213 57.0173C44.4022 52.6288 40.2832 49.0831 34.043 56.3063C29.9817 61.0084 29.6256 61.2475 30.0402 62.2446C29.145 65.1528 28.9438 64.6352 28.7364 66.1279C28.2025 69.889 25.8766 68.9464 25.7167 71.4946C25.6767 72.1438 26.354 72.4417 26.2837 73.1134C26.086 74.981 27.4448 74.884 26.7235 75.8916C25.5961 77.461 26.6647 78.6258 24.7793 79.3261C24.171 79.5526 23.8051 79.4289 23.5426 80.1038C22.7854 82.0574 20.9225 81.0669 22.0651 82.8948C22.0618 83.4417 21.3531 84.3503 22.2118 84.4765C23.2025 84.6203 23.3475 85.4677 22.9462 86.2292C21.1281 89.6882 21.0795 89.7801 20.8401 89.6201C20.7742 89.5748 19.5903 88.5905 19.4257 88.9844C19.1391 89.6506 17.4523 92.2834 18.39 92.2587C21.0948 92.188 17.9442 96.3533 17.6434 97.3858C15.9067 103.261 15.9794 98.2669 14.1585 103.165C14.4532 103.129 13.8232 102.958 13.4364 103.317C12.7051 103.986 14.2255 104.983 12.2887 104.282C12.0308 104.191 11.6199 104.554 11.5409 104.705C11.1641 105.39 12.6444 105.069 12.2816 106.426C11.7404 108.434 12.5417 108.107 7.50873 113.488C7.1397 113.887 7.16606 114.484 6.6892 114.825C6.33914 115.07 5.92334 115.256 5.65697 115.574C3.48963 118.166 -3.5257 116.527 -1.74193 115.726C-0.151001 115.013 0.32811 113.318 1.29941 113.689C0.786644 114.989 1.74216 114.014 1.2032 113.703L1.21491 113.75ZM16.0391 93.4322C15.6682 94.1226 16.379 93.8512 15.9428 93.4461C16.3138 92.7192 15.6688 93.0481 16.0391 93.4322ZM14.7536 84.4918C16.0679 82.8168 13.9585 83.798 14.7536 84.4918C15.2668 85.0741 13.2089 86.479 14.7536 84.4918ZM44.9081 67.1806C44.1598 66.6987 43.0723 68.6206 43.8138 68.2415C44.272 68.0061 44.6171 67.5986 44.9081 67.1806C45.3395 67.3861 45.6236 67.1209 45.8542 66.7601C46.1213 66.3335 45.4442 65.9992 45.262 66.3045C45.1162 66.5681 45.0241 66.8909 44.9021 67.1754L44.9081 67.1806ZM14.0178 98.6565C15.5885 99.2941 15.4984 97.3219 14.8685 97.1266C14.2627 96.9399 13.2658 97.8047 14.0178 98.6565ZM20.7259 87.6513C20.9574 87.1447 20.4716 86.9773 20.2305 87.0968C19.9833 87.2231 19.306 87.927 20.7259 87.6513ZM25.3803 76.3931C25.9569 75.4669 24.3313 75.9541 24.6653 76.3677C24.8979 76.6563 25.0782 76.6548 25.3803 76.3931ZM41.4669 79.5586C43.4491 77.7456 41.3716 78.4369 41.342 79.3396C41.3357 79.3951 41.3954 79.4474 41.4669 79.5586ZM23.4139 78.5499C23.3977 78.2426 23.5413 78.3556 22.948 78.0822C22.9581 78.3964 22.8085 78.2903 23.4139 78.5499ZM43.0948 75.7504C43.6961 75.6888 43.8999 74.8036 43.1083 75.5056C43.072 75.5472 43.0952 75.6775 43.0948 75.7504ZM37.5304 86.4465C38.1001 86.6504 38.3251 85.2341 37.4837 86.2346C37.4534 86.2693 37.4825 86.429 37.5304 86.4465ZM36.5722 91.8041C36.8973 91.709 36.77 91.8911 37.0927 91.1955C36.7737 91.2836 36.901 91.1015 36.5722 91.8041ZM17.1914 126.079C16.9262 126.202 16.9446 126.145 17.0879 126.294L17.1914 126.079ZM22.3818 119.528C22.4265 119.091 22.0413 119.207 22.1474 119.543C22.1532 119.573 22.3036 119.533 22.3818 119.528ZM30.1224 109.705C30.1056 109.495 30.1476 109.507 29.9723 109.672L30.1224 109.705ZM11.942 138.345C11.9383 137.963 11.5775 138.003 11.7256 138.34C11.7374 138.374 11.8699 138.343 11.942 138.345ZM25.1899 114.356C25.443 114.247 25.4186 114.311 25.2813 114.154L25.1899 114.356ZM22.207 117.653C22.2237 117.875 22.1877 117.856 22.3629 117.704L22.207 117.653ZM28.6922 107.724C28.921 107.643 28.9087 107.693 28.7894 107.54L28.6922 107.724ZM34.1097 97.4494C34.0332 97.1872 34.0872 97.1977 33.9058 97.3693L34.1097 97.4494ZM38.9036 83.992C38.6626 84.0993 38.687 84.0473 38.8003 84.1828L38.9036 83.992ZM8.221 108.062C8.21629 107.851 8.25226 107.87 8.07099 108.029L8.221 108.062ZM19.314 86.6146C19.6025 86.5976 19.542 86.667 19.592 86.3563C19.2914 86.375 19.3639 86.3039 19.314 86.6146ZM45.308 54.8609C45.3846 55.1231 45.3306 55.1005 45.4998 54.9428L45.308 54.8609Z" fill="#FFD400"/>
<path d="M-10.0974 35.5496C-10.1646 34.7457 -9.53451 33.9151 -9.86629 33.1369C-10.0322 32.7478 -8.36095 30.6879 -7.90136 30.2216C-5.3495 27.6473 -4.8609 38.1525 -7.01984 39.3715C-7.39373 39.5828 -7.33683 39.1314 -7.28496 39.4943C-7.16345 40.2601 -7.60763 41.1552 -7.07074 41.807C-6.58153 42.3927 -6.95516 43.5328 -7.98906 43.5712C-8.68635 43.598 -8.4254 43.1904 -9.45969 45.2564C-9.50228 45.3414 -9.45563 45.5776 -9.15362 45.328C-7.75825 44.1635 -7.47699 45.3374 -7.08594 44.286C-6.63384 43.0801 -5.88204 43.9683 -5.3001 42.1672C-5.16524 41.7351 -4.90033 41.6487 -4.32394 41.7364C-4.31476 41.2191 -4.39331 43.2518 -3.66129 42.4612C-2.27587 40.9581 -3.28298 40.5556 -1.25489 39.1124C0.139441 38.118 1.12283 37.4979 1.83095 37.6639C5.41352 38.518 6.14226 36.2952 7.13455 39.1281C8.01476 41.6187 8.41367 41.2461 8.32711 42.6243C8.30694 42.9733 8.48087 43.0274 8.92037 42.8978C9.75118 42.6577 9.44588 42.4645 8.80411 45.203C9.28407 46.3182 8.34593 47.4053 8.261 48.5162C8.23501 48.8356 4.27369 50.9495 6.87293 51.4341C7.61729 51.5706 7.70505 50.9753 7.99232 50.1876C8.56665 48.6486 9.88711 48.9214 9.94392 49.4596C10.0345 50.3694 8.30587 54.9325 9.79105 53.8219C10.431 53.3419 10.7654 52.7054 11.3536 52.8277C12.8602 53.1285 12.4799 51.4527 15.0213 50.5797C15.8765 50.2875 17.5849 49.0418 19.4072 49.8013C20.1025 50.0905 21.5312 50.3599 22.6101 49.8354C23.2913 49.5014 23.9557 50.9121 22.6169 51.6618C20.452 52.8756 22.622 50.8354 18.5718 50.7827C16.9253 50.763 17.9386 52.1237 13.5102 53.9644C11.9859 54.601 12.4353 56.7648 10.3036 56.4805C9.84123 56.419 9.14691 56.9492 9.92965 58.6707C10.6768 60.3245 6.77666 63.237 6.1149 64.3332C6.06633 64.413 0.96151 75.6323 0.924901 75.7225C0.192915 77.4904 -0.562585 77.2098 -0.832347 79.0635C-0.963905 79.9382 -1.29903 80.6843 -1.99391 81.2995C-2.27486 81.0544 -2.55583 80.8092 -2.84889 80.5779C-4.07478 79.5814 -4.46224 83.9712 -1.99326 81.1902C-1.70533 82.26 -2.53671 82.5973 -2.73476 83.5361C-2.95777 84.6243 -4.1937 85.2683 -4.32406 85.9486C-4.62215 87.521 -6.05191 88.4112 -6.38133 89.211C-7.43676 91.784 -10.1371 92.1151 -12.6494 91.1688C-13.4109 90.883 -11.9831 89.3314 -11.159 88.2302C-10.6077 87.5019 -11.8527 87.6615 -11.5008 87.1256C-11.3189 86.8568 -11.1361 86.4422 -10.9134 86.3801C-10.0765 86.133 -9.48922 85.4238 -8.7297 85.0482C-7.0057 84.1949 -6.68925 81.5879 -7.39162 81.4636C-8.08197 81.3376 -7.8832 80.2772 -7.59696 79.6596C-6.47667 77.2899 -4.55495 77.5252 -4.39769 76.3797C-4.03261 73.6807 -2.50233 74.0388 -2.23839 72.1557C-2.02466 70.6196 -1.00205 69.4719 -0.902493 67.934C-0.895771 67.8177 0.00990439 63.2081 1.84296 61.2283C3.10734 59.8639 1.75953 59.1519 2.7625 59.2575C3.39912 59.3244 3.36309 59.3174 3.73899 58.7781C3.96336 58.4486 3.02925 58.8794 3.12045 57.7251C3.15294 57.3259 3.49174 56.9498 3.38607 56.5399C1.46994 56.3826 6.97466 46.5995 3.89329 39.4636C3.70954 39.0467 2.09987 38.8882 1.09124 39.7061C0.378573 40.2814 -3.067 44.5435 -4.21071 45.8299C-6.51628 48.4236 -3.77943 46.0597 -8.6436 53.3109C-10.548 56.1448 -11.3482 56.2894 -11.4306 57.9646C-11.6173 61.9675 -14.2172 63.5591 -13.528 63.8674C-13.1264 64.0467 -12.8815 64.2849 -13.2931 64.7686C-13.7531 65.2957 -13.6972 65.9798 -14.0491 66.5279C-14.4435 67.1367 -15.1078 67.6686 -14.9424 68.1428C-14.5054 69.4038 -16.2521 72.986 -17.1315 74.2833C-18.2654 75.9447 -17.3769 77.0623 -19.8906 79.2912C-21.0266 80.3033 -25.7074 80.1889 -24.7318 78.8658C-23.9258 77.7733 -23.3216 77.2498 -23.2922 76.3836C-23.23 75.0574 -22.5429 74.7286 -21.7729 73.6169C-20.5056 71.7786 -23.8417 71.8971 -20.9975 68.6861C-18.3832 65.7265 -20.0093 65.3214 -18.3227 62.7129C-17.4005 61.2942 -18.8331 61.6689 -16.0488 59.3953C-16.2955 59.4487 -15.4964 59.4863 -15.1507 58.9695C-15.0962 58.895 -14.9971 58.4195 -16.0614 58.5169C-17.4478 56.2442 -14.2976 55.0838 -13.9919 52.272C-13.9726 52.0689 -13.4543 51.8248 -13.4532 51.6547C-13.4576 51.3943 -13.7147 51.17 -13.8696 50.9372C-13.88 50.6716 -12.9205 47.0864 -12.9127 46.7999C-12.9049 46.5014 -13.6319 44.5109 -12.7931 43.9479C-9.45609 41.7168 -12.5372 41.4224 -11.4804 40.5854C-10.4357 39.7623 -9.59849 39.4546 -10.0854 38.4921C-11.3976 35.8932 -10.0226 37.0687 -10.1635 35.5408L-10.0974 35.5496ZM-2.41775 77.8877C0.853872 77.5053 -1.15764 75.2612 -1.59555 76.1129C-2.50769 77.858 -2.3254 77.5285 -2.41775 77.8877ZM-17.5425 70.7361C-19.3344 70.9071 -18.6103 72.3942 -17.9458 71.8257C-17.6437 71.564 -16.8572 70.711 -17.5425 70.7361ZM-8.39995 49.834C-8.64787 50.0819 -8.735 50.5679 -8.54253 50.5404C-7.496 50.4031 -7.366 48.8061 -8.39995 49.834ZM-14.76 60.923C-14.4532 60.8731 -14.5864 61.0379 -14.2519 60.3891C-14.5527 60.4321 -14.4315 60.2691 -14.76 60.923ZM-21.7245 78.4726C-21.0246 78.0084 -21.1651 77.4092 -21.7836 78.311C-21.8078 78.3388 -21.7482 78.4153 -21.7245 78.4726ZM5.6204 55.7654C5.0062 55.9624 5.16955 55.7873 5.00937 56.4294C5.61153 56.2341 5.47837 56.3867 5.6204 55.7654ZM-16.1635 69.3128C-16.1349 69.5455 -16.1769 69.5333 -15.9895 69.3547L-16.1635 69.3128ZM-19.1747 70.35C-18.934 70.2914 -18.9584 70.3434 -19.1135 70.1592L-19.1747 70.35Z" fill="#FFD400"/>
<path d="M37.5234 152.313C37.4705 153.11 37.9959 152.689 35.6769 155.515C34.1935 157.324 34.7301 158.024 33.038 158.563C32.5142 158.729 32.2544 159.944 32.1489 160.475C31.9321 161.532 30.5926 163.381 29.7182 162.899C29.1013 162.556 28.7979 162.047 27.8822 162.42C27.0809 162.747 26.6948 161.995 26.9884 161.152C27.3432 160.13 28.4287 159.525 28.7836 158.491C28.9794 157.917 30.0111 158.243 30.6588 157.477C31.688 156.249 35.7973 154.509 31.0303 153.733C31.413 153.065 30.7808 153.258 31.1265 153.719C30.6728 154.215 29.7834 155.198 29.7834 155.198C29.1944 155.209 29.2426 155.166 29.3415 155.704C29.3427 155.51 29.082 155.893 28.7996 155.879C28.0966 155.852 28.4503 155.012 28.9467 154.431C30.5446 152.564 29.7244 152.068 30.5301 151.024C32.6502 148.281 32.121 148.344 32.537 148.133C34.6592 147.016 34.3489 144.705 36.771 144.669C34.8122 146.575 36.2725 146.579 36.3456 146.423C37.4774 144.137 35.4711 145.941 39.0767 142.039C40.7888 140.185 39.5348 140.85 41.6496 137.992C42.5586 136.77 42.4633 133.681 37.9911 139.735C38.1776 139.702 36.9514 139.732 36.9466 139.532C36.9629 137.848 36.7438 136.35 37.661 136.723C38.4523 137.047 38.462 137.422 39.454 136.369C40.8513 134.889 40.0253 134.351 41.2905 133.831C42.6582 133.265 41.4976 127.488 45.61 131.113C46.2855 131.703 46.4422 130.654 47.0899 128.91C47.371 128.154 46.156 128.327 45.784 128.235C44.7519 127.97 43.8044 128.621 42.8466 128.982C42.4972 129.117 42.2419 129.591 41.9156 129.88C40.5984 131.04 39.8487 128.822 41.6259 128.113C41.9212 127.992 42.3004 127.895 42.3745 127.581C42.6331 126.56 43.5098 125.701 43.4984 124.616C43.4856 123.761 44.4209 124.113 44.6841 123.341C45.0145 122.384 44.6281 120.703 46.1715 118.922C47.3093 117.606 45.7519 117.762 46.5216 115.721C47.0836 114.233 47.0952 115.281 48.2015 112.252C49.0143 110.041 50.2747 110.31 50.5456 109.252C51.2724 106.38 53.107 106.1 53.0827 104.173C53.0686 103.537 53.7164 102.759 54.1463 102.23C55.1394 101.007 53.7337 100.929 55.3268 98.874C55.4601 98.6971 55.605 98.5793 55.5884 98.3449C55.5292 97.2182 56.3111 96.1291 56.1979 94.9919C56.4426 94.2892 56.9751 93.7031 57.1359 92.9517C57.2658 92.3443 57.444 91.7057 57.7659 91.1559C58.9261 89.1386 57.4204 88.692 60.2612 84.0731C60.8 84.4089 61.3425 84.1493 61.8735 83.7942C62.4468 83.4149 61.7543 82.6518 61.3916 82.995C61.0107 83.359 60.6361 83.7039 60.2612 84.0731C59.3487 81.9452 63.0038 78.7945 61.84 77.4856C61.2969 76.8651 61.8791 75.0275 62.6222 74.381C63.4137 73.6912 62.8612 72.6471 64.0407 72.3936C64.7267 72.247 64.7008 71.5648 64.9896 70.534C65.1125 70.0915 65.6454 70.41 65.6507 70.5246C65.7178 73.2953 65.746 73.613 65.3161 74.1419C64.6136 75.0071 65.625 74.717 65.6826 75.1215C66.0503 77.8979 64.8081 77.5958 64.1096 79.7717C63.6011 81.356 64.6737 80.8992 64.809 81.3716C65.274 82.9746 66.9014 80.241 68.2212 80.623C69.091 80.8812 69.3819 80.4755 69.6942 80.5037C70.1206 80.546 72.2856 81.2869 72.59 81.6259C73.3482 82.4585 72.0689 82.3317 73.0282 85.6488C73.1693 86.1507 73.1308 87.5342 72.2584 87.7013C70.6219 88.008 71.2637 90.1685 69.1496 91.9153C68.8959 92.1216 68.7653 91.8731 68.8503 91.7274C69.7857 90.1125 68.9014 90.2571 68.7813 89.2604C68.6324 88.0555 71.7877 85.0672 70.4275 84.4177C69.8583 84.1408 70.2859 84.9782 69.4718 85.4284C69.0497 85.6586 68.5173 84.2778 68.9249 83.4607C69.7218 81.8839 68.0971 80.2584 64.4727 85.2684C63.9211 86.0332 64.3106 86.2264 63.3348 87.5617C62.45 88.7687 63.6061 89.3866 63.1807 90.1637C63.4875 90.1138 62.8267 90.0626 62.7363 90.1058C62.1092 90.4504 61.3105 91.3415 61.3778 92.1211C61.4674 93.1888 61.8156 92.271 62.8519 91.8437C62.9841 92.8265 61.7032 95.8991 60.9128 100.34C60.4646 102.869 59.2582 102.622 59.1535 104.022C58.9436 106.893 59.083 106.709 58.4308 107.215C57.4466 107.981 58.5346 108.906 57.0482 112.19C56.5914 113.184 55.3042 113.368 55.6721 114.129C56.2478 115.315 54.8113 117.299 54.4993 118.2C54.3464 118.64 53.947 118.096 53.1491 119.843C52.7532 120.707 53.7989 120.704 53.3714 121.821C52.034 125.296 51.7165 126.107 50.5053 126.638C49.1194 127.249 51.2195 128.764 49.0634 131.488C48.6697 131.987 47.1541 136.101 44.4084 140.888C44.1047 141.417 43.3245 141.238 42.9202 142.485C42.1179 144.949 40.601 149.269 38.156 150.092C37.602 150.281 37.8932 151.805 37.5288 152.428C36.3043 152.178 37.1712 152.922 37.5293 152.343L37.5234 152.313ZM50.1904 117.213C49.5249 116.962 49.7017 117.531 50.191 117.115C50.9334 117.58 51.7871 115.564 50.1904 117.213ZM44.0468 137.128C43.5019 137.788 43.9471 138.69 44.3102 138.274C44.8247 137.684 44.5073 137.493 44.0468 137.128C44.3012 136.8 44.2489 136.51 44.0522 136.253C44.8013 135.612 46.933 132.952 45.4269 132.566C44.8929 132.43 44.6952 133.308 43.8929 135.772C43.85 135.905 43.981 136.093 44.0462 136.248C43.8098 136.567 43.8141 136.863 44.0408 137.122L44.0468 137.128ZM34.4795 148.887C34.7821 148.541 35.0907 148.187 35.3933 147.84C35.9857 148.272 36.0927 147.473 35.3867 147.944C34.6983 147.502 34.7712 147.383 34.2159 147.766C33.7271 148.109 34.2535 148.495 34.5817 148.879C34.0263 150.275 35.0545 149.194 34.4854 148.893L34.4795 148.887ZM48.91 114.312C48.6267 114.455 48.2837 114.535 48.1201 114.758C47.5261 115.572 47.3104 116.459 47.5452 117.36C47.8682 118.595 50.9709 115.377 48.904 114.319C50.388 112.425 48.3202 113.479 48.904 114.319L48.91 114.312ZM56.4735 104.957C58.2758 104.074 57.2436 103.821 57.5455 102.606C57.7119 101.933 56.2295 101.604 55.9131 102.244C55.5906 102.892 57.0749 102.904 55.9411 104.541C54.9346 105.996 55.1873 105.948 56.4674 104.964L56.4735 104.957ZM50.0533 123.91C51.4194 124.577 52.3705 121.375 52.3531 121.275C52.33 121.12 49.5391 121.519 50.0533 123.91ZM48.8239 119.551C47.7345 118.832 46.7709 120.166 46.678 121.587C46.5852 123.009 49.6858 120.12 48.8239 119.551ZM58.6756 100.599C58.5737 99.5818 61.3125 98.8567 58.5616 98.6062C58.1652 98.5657 57.4696 99.3025 57.5635 99.6654C58.1569 101.894 58.7606 101.443 58.6756 100.599ZM45.9762 126.289C48.5858 123.118 45.2928 124.044 45.1776 125.189C45.1393 125.559 45.1036 126.469 45.4457 126.547C45.5837 126.582 45.8013 126.381 45.9762 126.289ZM51.945 110.375C54.6883 111.877 53.7427 108.291 52.0188 110.098C51.9644 110.16 51.9697 110.275 51.945 110.375ZM32.6981 152.256C33.9072 152.053 34.0464 149.939 33.5514 150.301C33.153 150.588 32.6407 151.803 32.6981 152.256ZM54.2443 111.747C54.7848 111.815 54.6746 111.157 54.5735 110.995C54.3949 110.717 53.6702 111.294 54.2443 111.747ZM40.1464 142.056C41.7061 142.513 40.7383 140.593 40.13 141.785C40.0875 141.858 40.1409 141.966 40.1464 142.056ZM50.9666 114.115C52.0133 113.941 52.2557 112.638 51.4714 113.126C51.1035 113.355 50.8111 113.979 50.9666 114.115ZM43.634 132.895C44.3942 132.41 44.1816 131.809 43.581 132.726C43.5568 132.754 43.6103 132.837 43.634 132.895ZM60.2478 94.128C60.225 93.9248 60.2609 93.944 60.1038 94.0757L60.2478 94.128ZM54.4813 107.397C54.5101 107.605 54.4681 107.593 54.6312 107.454L54.4813 107.397ZM50.6855 118.805C50.4808 118.859 50.4991 118.814 50.6063 118.968L50.6855 118.805ZM31.8429 151.559C32.0837 151.488 32.0534 151.535 31.9101 151.373L31.8429 151.559ZM33.7578 153.877C33.7233 153.627 33.7773 153.638 33.5657 153.844L33.7578 153.877Z" fill="#FFD400"/>
<path d="M64.3162 122.454C64.7994 124.024 63.1249 126.594 62.4116 127.279C61.7225 127.936 62.8894 127.769 60.9002 131.69C58.4428 136.521 57.8945 133.795 58.0294 136.295C58.1368 138.392 56.4843 138.367 56.3654 139.131C56.0901 140.906 54.993 143.43 54.5013 142.268C53.8319 140.682 52.518 150.14 48.906 153.109C48.1087 153.769 46.6116 157.801 43.162 159.775C41.8713 160.518 42.931 163.141 38.0818 164.016C37.3899 164.145 37.1431 163.221 37.2642 163.082C37.5303 162.802 38.7913 161.996 39.1462 161.939C39.2846 161.913 39.5401 162.393 39.5934 162.513C41.1141 161.494 38.91 161.257 43.0074 156.562C43.316 156.208 43.6714 156.078 43.5424 156.54C43.1372 157.933 44.6196 157.26 44.8223 156.557C44.9267 156.184 44.5034 155.632 44.9575 155.087C45.4539 154.494 45.7703 153.854 46.0572 153.139C46.3197 152.476 46.9721 151.934 47.3306 151.282C47.6771 150.643 48.174 148.976 49.0491 149.361C49.2888 149.472 50.0554 149.909 50.0032 149.595C49.8418 148.464 49.8154 148.857 50.8923 144.739C51.3106 143.161 52.0161 142.787 52.8215 141.78C53.7057 140.682 52.5741 140.965 53.8651 138.195C54.3158 137.22 55.3056 136.544 55.6127 135.456C55.6557 135.31 55.9387 135.203 56.1018 135.065C58.3192 133.139 58.2178 132.037 59.0135 131.632C60.0444 131.114 60.5028 129.853 60.4357 129.037C58.5873 129.598 57.6576 131.255 57.7281 130.534C57.9711 128.156 59.0317 128.654 60.1018 124.665C60.3724 123.667 61.6211 122.9 61.3927 121.931C61.2755 121.438 61.1703 120.955 61.5459 120.464C61.8912 120.008 61.8886 119.456 62.1498 119C62.3624 118.635 62.7606 118.372 62.9732 118.008C63.1917 117.649 63.2605 117.208 63.4431 116.83C64.7818 114.138 65.9674 114.83 65.5861 114.29C64.8474 113.23 64.3381 112.981 64.911 112.662C65.4717 112.357 66.1234 110.947 65.2238 109.673C63.5852 109.331 67.0684 104.82 68.2612 103.357C70.0474 101.177 67.6391 100.933 68.2947 99.8555C69.4966 97.899 67.4264 98.3526 68.5658 96.7936C68.9476 96.2716 69.509 95.8818 69.7173 95.2328C70.1216 93.973 69.2344 94.5916 68.7175 94.5925C69.2583 91.656 68.7904 93.4955 72.2611 90.0372C72.9202 89.3785 72.562 90.9473 72.6286 91.8605C70.8656 93.1808 73.9056 94.3309 71.5218 96.9419C70.9651 97.5556 71.615 98.3916 71.1544 99.0159C70.5727 99.8032 70.0401 100.413 70.6586 100.501C71.8656 100.663 69.4656 107.865 68.6717 108.956C68.2535 109.532 69.1221 109.984 68.525 110.343C67.3789 111.029 68.5897 111.56 67.5764 114.121C66.3066 117.35 66.5321 118.793 65.0315 119.474C63.9106 119.987 64.5555 121.637 64.3037 122.529C63.4649 122.102 62.624 124.007 64.2983 122.438L64.3162 122.454ZM66.833 106.948C64.9099 109.888 68.1491 109.893 68.0992 108.237C68.0648 106.985 67.9731 106.257 66.833 106.948ZM55.7638 138.264C56.3842 137.046 55.5436 137.913 55.4284 138.069C54.9738 138.698 55.5087 138.701 55.7638 138.264ZM42.9689 158.922C43.461 158.057 42.6225 158.559 42.5836 159.038C42.5709 159.149 42.7935 159.099 42.9689 158.922ZM62.0129 124.671C62.3196 124.633 62.241 124.711 62.303 124.399C62.0083 124.447 62.0748 124.371 62.0129 124.671ZM60.7922 127.735C60.7968 127.959 60.755 127.935 60.9482 127.773L60.7922 127.735Z" fill="#FFD400"/>
<path d="M6.03507 104.787C4.04545 108.78 2.67464 108.879 1.75945 111.122C1.09441 112.753 -0.553701 112.011 -0.473015 111.593C-0.00802172 109.262 0.265128 109.794 0.454529 109.287C0.741658 108.524 0.3865 107.64 1.15386 106.966C1.87288 106.335 1.90229 105.456 2.21945 104.695C2.62209 103.715 2.58637 104.648 4.36582 101.608C6.42815 103.407 4.41501 103.386 6.02901 104.794L6.03507 104.787ZM2.38827 106.577C2.22405 106.898 1.98145 107.26 2.40354 107.03C2.58443 106.931 2.89346 106.517 2.38827 106.577Z" fill="#FFD400"/>
<path d="M4.37246 101.601C4.1417 101.008 4.45192 100.4 4.57579 99.7991C5.39357 98.7413 5.49161 97.4464 6.11744 96.3311C6.36647 95.9009 7.03914 95.9748 7.0978 96.2092C7.57823 98.2289 8.14261 97.3287 7.9489 98.5402C7.62975 100.607 9.00971 100.981 8.65152 101.572C7.62573 103.23 7.00037 105.25 6.02967 104.782C6.04708 104.882 7.24929 101.9 6.38948 101.968C5.76415 102.021 5.36403 101.599 4.82993 101.475C4.73989 101.457 4.09607 101.592 4.37254 101.589L4.37246 101.601Z" fill="#FFD400"/>
<path d="M37.9977 139.728C38.4598 139.838 39.9433 139.997 39.0774 141.049C38.3327 141.963 37.5292 141.653 36.7389 141.171C36.72 141.313 38.118 139.711 38.0038 139.721L37.9977 139.728Z" fill="#FFD400"/>
<path d="M36.7328 141.166C34.5947 141.926 36.2318 139.58 36.4909 140.441C36.762 141.313 36.6953 141.402 36.7328 141.166Z" fill="#FFD400"/>
<path d="M39.4343 131.819C39.0885 131.383 39.6382 130.91 40.313 130.632C40.0564 131.312 40.3168 131.001 39.4343 131.819Z" fill="#FFD400"/>
<path d="M57.7998 130.816C57.8353 130.896 58.24 131.555 57.6259 131.727C56.6989 131.981 57.9441 130.808 57.7998 130.816Z" fill="#FFD400"/>
<path d="M10.5932 135.836C10.1924 135.535 10.7109 135.255 10.6609 135.566C10.6357 135.764 10.4248 135.86 10.5932 135.836Z" fill="#FFD400"/>
<path d="M63.1755 90.1465C63.4436 90.527 63.1178 90.7315 63.1738 90.4139C63.2298 90.1084 63.3741 90.112 63.1755 90.1465Z" fill="#FFD400"/>
<path d="M25.335 110.267C24.0154 110.838 24.9772 109.809 25.3343 110.365L25.335 110.267Z" fill="#FFD400"/>
<path d="M29.772 155.2C30.1365 155.542 29.6886 156.043 29.3301 155.706C29.3294 155.828 29.8983 155.176 29.772 155.2Z" fill="#FFD400"/>
<path d="M29.3687 157.108C29.147 157.049 29.1647 157.101 29.3518 156.935L29.3687 157.108Z" fill="#FFD400"/>
<path d="M35.42 162.976C35.3225 163.22 35.3767 163.206 35.2276 163.04L35.42 162.976Z" fill="#FFD400"/>
<path d="M14.1641 103.219C14.4259 103.655 14.0404 103.795 14.1265 103.479C14.2064 103.194 14.3807 103.188 14.1641 103.219Z" fill="#FFD400"/>
<path d="M41.8882 71.4608C41.2057 72.0136 41.3415 71.4236 41.4496 71.4445C41.9538 71.5425 41.887 71.6552 41.8882 71.4608Z" fill="#FFD400"/>
<path d="M19.8091 90.2105C20.0068 90.2611 19.9951 90.2143 19.8141 90.3735L19.8091 90.2105Z" fill="#FFD400"/>
<path d="M22.0591 82.9624C22.5859 82.3104 22.9583 83.3196 22.0584 83.0718L22.0591 82.9624Z" fill="#FFD400"/>
<path d="M27.7914 57.4726C27.9309 57.2645 28.1538 57.178 28.2852 57.3171C28.3568 57.3918 28.2228 57.6781 28.1856 57.8655C28.3 57.8431 27.7801 57.3528 27.7914 57.4726Z" fill="#FFD400"/>
</svg>
