<?xml version="1.0" encoding="UTF-8"?>
<svg id="Layer_2" data-name="Layer 2" xmlns="http://www.w3.org/2000/svg" viewBox="0 0 321.88 46.01">
  <defs>
    <style>
      .cls-1 {
        fill: #fffef5;
      }

      .cls-2 {
        fill: #4dad2a;
        stroke: #000;
        stroke-miterlimit: 10;
      }
    </style>
  </defs>
  <g id="Layer_1-2" data-name="Layer 1">
    <g>
      <polygon class="cls-2" points=".54 6.4 3.31 45.51 315.35 45.51 321.31 .51 .54 6.4"/>
      <g>
        <path class="cls-1" d="M57.6,27.65h2.06c.08,2.1,1.07,3.11,3.04,3.11,1.66,0,2.71-.94,2.71-2.41,0-1.62-.63-2.12-3.17-2.48-3.02-.42-4.22-1.53-4.22-3.95s1.81-4.24,4.47-4.24c2.86,0,4.49,1.64,4.49,4.49h-2.06c-.08-1.89-.8-2.67-2.41-2.67-1.49,0-2.46.94-2.46,2.35s.55,1.85,2.58,2.12c3.55.5,4.81,1.6,4.81,4.2s-1.89,4.41-4.74,4.41c-3.25,0-5.1-1.74-5.1-4.93Z"/>
        <path class="cls-1" d="M73.83,19.5c-1.64,0-2.46.8-2.67,2.58h-2.06c.27-2.9,1.87-4.41,4.7-4.41,3.09,0,4.81,1.72,4.81,4.77v10.14h-2.08v-2.06c-.74.71-1.81,1.07-3.28,1.07-2.67,0-4.51-1.66-4.51-4.05s1.81-4.01,4.6-4.01c1.39,0,2.44.34,3.19,1.03v-2.14c0-1.91-.92-2.92-2.71-2.92ZM73.6,29.89c1.91,0,2.94-.86,2.94-2.37s-1.03-2.39-2.94-2.39c-1.72,0-2.79.92-2.79,2.39s1.07,2.37,2.79,2.37Z"/>
        <path class="cls-1" d="M79.85,18.93h2.08l3.28,11.46,3.28-11.46h2.08l-4.14,13.65h-2.44l-4.14-13.65Z"/>
        <path class="cls-1" d="M91.29,27.23v-4.2c0-3.3,2-5.35,5.19-5.35s5.16,2.02,5.16,5.27v2.54h-8.29v1.72c0,2.23,1.13,3.49,3.13,3.49s2.92-1.01,3.11-3.15h2.06c-.27,3.38-1.95,5.04-5.16,5.04s-5.19-2.06-5.19-5.35ZM99.59,23.85v-.99c0-2.14-1.13-3.38-3.11-3.38s-3.13,1.26-3.13,3.49v.88h6.24Z"/>
        <path class="cls-1" d="M109.41,27.82v-6.09h-1.91v-1.97h1.91v-3.13h2.06v3.13h3.46v1.97h-3.46v6.07c0,2.12.65,2.9,2.41,2.9h1.05v1.89h-1.2c-3.07,0-4.33-1.47-4.33-4.77Z"/>
        <path class="cls-1" d="M116.82,15.16h2.06v5.19c.74-.88,1.85-1.41,3.13-1.41,2.75,0,4.35,1.74,4.35,4.83v8.82h-2.06v-8.69c0-1.99-.88-2.98-2.58-2.98s-2.83,1.15-2.83,2.94v7.47h-2.06V15.16Z"/>
        <path class="cls-1" d="M128.24,17.19c0-.9.65-1.49,1.64-1.49s1.66.59,1.66,1.49-.67,1.51-1.66,1.51-1.64-.59-1.64-1.51ZM128.85,20.15h2.06v12.43h-2.06v-12.43Z"/>
        <path class="cls-1" d="M132.84,27.65h2.06c.08,2.1,1.07,3.11,3.04,3.11,1.66,0,2.71-.94,2.71-2.41,0-1.62-.63-2.12-3.17-2.48-3.02-.42-4.22-1.53-4.22-3.95s1.81-4.24,4.47-4.24c2.86,0,4.49,1.64,4.49,4.49h-2.06c-.08-1.89-.8-2.67-2.42-2.67-1.49,0-2.46.94-2.46,2.35s.54,1.85,2.58,2.12c3.55.5,4.81,1.6,4.81,4.2s-1.89,4.41-4.75,4.41c-3.25,0-5.1-1.74-5.1-4.93Z"/>
        <path class="cls-1" d="M149.34,17.67h2.06v2.67c.71-.88,1.78-1.41,2.94-1.41,1.66,0,2.92.71,3.59,2.02.63-1.2,2.04-2.02,3.57-2.02,2.65,0,4.2,1.78,4.2,4.83v8.82h-2.06v-8.69c0-1.95-.82-2.98-2.41-2.98s-2.67,1.2-2.67,2.94v7.47h-2.06v-7.43c0-1.95-.84-2.98-2.41-2.98s-2.69,1.2-2.69,2.94v7.47h-2.06v-13.65Z"/>
        <path class="cls-1" d="M172.67,19.5c-1.64,0-2.46.8-2.67,2.58h-2.06c.27-2.9,1.87-4.41,4.7-4.41,3.09,0,4.81,1.72,4.81,4.77v10.14h-2.08v-2.06c-.74.71-1.81,1.07-3.28,1.07-2.67,0-4.51-1.66-4.51-4.05s1.81-4.01,4.6-4.01c1.39,0,2.44.34,3.19,1.03v-2.14c0-1.91-.92-2.92-2.71-2.92ZM172.44,29.89c1.91,0,2.94-.86,2.94-2.37s-1.03-2.39-2.94-2.39c-1.72,0-2.79.92-2.79,2.39s1.07,2.37,2.79,2.37Z"/>
        <path class="cls-1" d="M179.17,27.65h2.06c.08,2.1,1.07,3.11,3.04,3.11,1.66,0,2.71-.94,2.71-2.41,0-1.62-.63-2.12-3.17-2.48-3.02-.42-4.22-1.53-4.22-3.95s1.81-4.24,4.47-4.24c2.86,0,4.49,1.64,4.49,4.49h-2.06c-.08-1.89-.8-2.67-2.41-2.67-1.49,0-2.46.94-2.46,2.35s.55,1.85,2.58,2.12c3.55.5,4.81,1.6,4.81,4.2s-1.89,4.41-4.74,4.41c-3.25,0-5.1-1.74-5.1-4.93Z"/>
        <path class="cls-1" d="M191.77,27.82v-6.09h-1.91v-1.97h1.91v-3.13h2.06v3.13h3.46v1.97h-3.46v6.07c0,2.12.65,2.9,2.42,2.9h1.05v1.89h-1.2c-3.06,0-4.32-1.47-4.32-4.77Z"/>
        <path class="cls-1" d="M198.61,27.23v-4.2c0-3.3,2-5.35,5.19-5.35s5.16,2.02,5.16,5.27v2.54h-8.29v1.72c0,2.23,1.13,3.49,3.13,3.49s2.92-1.01,3.11-3.15h2.06c-.27,3.38-1.95,5.04-5.16,5.04s-5.19-2.06-5.19-5.35ZM206.91,23.85v-.99c0-2.14-1.13-3.38-3.11-3.38s-3.13,1.26-3.13,3.49v.88h6.24Z"/>
        <path class="cls-1" d="M211.13,17.67h2.06v2.92c.69-1.05,1.81-1.66,3.21-1.66.38,0,.84.02,1.11.06v1.93h-1.01c-1.97,0-3.32,1.36-3.32,3.7v6.7h-2.06v-13.65Z"/>
        <path class="cls-1" d="M221.33,30.06v5.67h-2.06v-18.06h2.06v2.98c.76-.8,1.91-1.26,3.3-1.26,3.07,0,4.93,2.06,4.93,5.35v1.22c0,3.3-1.87,5.35-4.93,5.35-1.39,0-2.54-.46-3.3-1.26ZM224.46,29.43c1.97,0,3.04-1.28,3.04-3.49v-1.11c0-2.2-1.07-3.46-3.04-3.46s-3.13,1.24-3.13,3.46v1.11c0,2.23,1.13,3.49,3.13,3.49Z"/>
        <path class="cls-1" d="M231.11,17.19c0-.9.65-1.49,1.64-1.49s1.66.59,1.66,1.49-.67,1.51-1.66,1.51-1.64-.59-1.64-1.51ZM231.72,20.15h2.06v12.43h-2.06v-12.43Z"/>
        <path class="cls-1" d="M235.92,27.23v-4.2c0-3.3,1.99-5.35,5.19-5.35s5.17,2.02,5.17,5.27v2.54h-8.29v1.72c0,2.23,1.13,3.49,3.13,3.49s2.92-1.01,3.11-3.15h2.06c-.27,3.38-1.95,5.04-5.17,5.04s-5.19-2.06-5.19-5.35ZM244.21,23.85v-.99c0-2.14-1.13-3.38-3.11-3.38s-3.13,1.26-3.13,3.49v.88h6.24Z"/>
        <path class="cls-1" d="M247.86,26.39v-2.52c0-3.3,1.99-5.35,5.19-5.35s4.85,1.72,5.12,5.1h-2.06c-.19-2.16-1.03-3.13-3.07-3.13s-3.13,1.24-3.13,3.46v2.41c0,2.23,1.13,3.49,3.13,3.49s2.88-1.03,3.07-3.15h2.06c-.27,3.38-1.87,5.04-5.12,5.04s-5.19-2.06-5.19-5.35Z"/>
        <path class="cls-1" d="M259.73,27.23v-4.2c0-3.3,1.99-5.35,5.19-5.35s5.17,2.02,5.17,5.27v2.54h-8.29v1.72c0,2.23,1.13,3.49,3.13,3.49s2.92-1.01,3.11-3.15h2.06c-.27,3.38-1.95,5.04-5.17,5.04s-5.19-2.06-5.19-5.35ZM268.02,23.85v-.99c0-2.14-1.13-3.38-3.11-3.38s-3.13,1.26-3.13,3.49v.88h6.24Z"/>
      </g>
    </g>
  </g>
</svg>