<svg width="381" height="400" viewBox="0 0 381 400" fill="none" xmlns="http://www.w3.org/2000/svg">
<path d="M216.742 142.991C215.07 145.121 214.619 145.792 214.166 145.898C208.92 146.868 205.952 145.993 205.785 150.315C205.659 153.741 201.972 153.095 201.731 154.993C201.269 158.577 199.78 158.414 199.205 159.557C196.301 165.321 192.148 165.652 191.744 168.744C191.384 171.505 186.429 177.376 184.304 178.726C182.037 180.171 183.493 181.862 181.797 184.701C181.654 184.943 170.177 203.083 170.296 203.994C170.566 206.033 172.359 203.901 174.479 206.27C173.592 207.156 174.459 207.517 174.452 206.859C174.448 205.287 176.031 205.741 176.052 203.607C176.113 198.537 176.752 198.743 178.274 196.049C183.282 192.102 183.225 186.269 186.369 183.897C190.768 180.58 190.098 176.463 194.79 173.616C195.885 172.95 197.417 174.259 197.358 174.898C196.594 182.228 198.48 181.715 197.203 183.344C195.941 184.961 194.243 185.464 194.065 187.556C193.841 190.302 191.689 192.24 189.347 193.772C186.193 195.806 186.725 200.26 182.043 206.371C179.998 209.058 179.29 206.67 176.987 210.408C174.966 213.714 173.273 217.978 168.661 221.571C156.875 230.766 160.677 238.527 156.209 246.108C156.003 246.452 155.935 247.05 156.092 247.387C157.851 250.918 153.964 255.679 157.214 259.79C161.366 265.045 151.672 270.899 151.856 267.129C151.902 266.032 150.403 266.124 150.459 265.068C150.697 260.859 148.023 253.094 148.047 252.828C148.411 251.492 148.392 251.557 147.058 251.757C147.312 251.767 147.571 251.871 146.249 250.904C144.112 249.312 141.225 254.89 136.606 256.052C134.834 256.494 133.598 257.965 132.156 259.042C129.516 261.043 119.028 261.628 116.527 260.043C112.567 257.532 107.519 259.716 109.647 256.566C111.608 253.63 111.023 251.361 106.743 253.964C104.837 255.132 101.711 253.329 101.747 251.184C101.832 245.256 104.083 247.221 103.872 244.395C103.701 242.002 105.564 240.723 103.498 237.324C102.763 236.115 104.772 229.276 105.062 224.777C105.312 221.026 109.076 222.297 108.859 220.853C108.628 219.422 108.039 219.395 111.822 214.45C113.346 212.468 110.842 212.977 111.189 211.237C111.84 208.087 116.078 199.047 117.455 196.474C117.911 195.602 119.235 196.69 119.527 193.494C120.063 187.487 120.879 192.517 123.177 184.428C123.793 182.241 126.292 183.262 127.195 183.224C128.287 183.176 128.217 182.915 131.218 176.676C131.65 175.776 130.413 174.91 129.665 175.312C128.901 175.726 126.908 177.557 124.88 179.024C123.24 180.217 121.819 179.603 121.234 181.591C120.082 185.675 116.39 186.976 113.795 190.982C106.443 202.342 102.538 201.877 100.917 203.3C98.8601 205.086 101.788 204.347 94.6565 209.2C92.9802 210.349 90.9343 209.518 84.8456 211.338C82.1815 212.128 81.8115 211.181 79.6882 210.611C78.1169 210.171 75.9395 211.073 75.3331 208.601C73.9119 208.283 70.7543 208.007 72.2013 205.695C78.1734 196.197 75.8692 202.741 79.5331 206.729C82.8436 210.322 93.7397 207.626 98.2555 199.807C99.7074 197.294 103.225 198.919 105.666 194.401C107.962 190.153 110.485 190.464 111.499 187.16C112.19 184.886 116.118 183.929 116.866 180.453C123.15 172.836 121.68 172.46 123.656 172.882C128.147 173.844 124.725 169.999 128.279 167.114C129.137 166.4 129.302 165.032 130.414 164.624C131.802 164.133 131.802 163.099 131.747 161.939C131.664 160.36 134.76 157.192 136.489 156.786C139.633 156.04 136.759 151.936 142.829 152.075C144.827 152.11 145.259 150.028 143.359 149.371C142.017 148.912 142.51 146.755 143.886 146.397C144.395 146.269 144.646 146.011 144.76 145.497C146.509 137.103 150.87 136.548 151.99 134.878C152.487 134.145 152.563 133.024 153.2 132.518C155.344 130.807 156.341 128.132 158.521 126.465C161.624 124.103 163.737 122.443 163.523 119.053C163.262 114.866 169.803 113.383 170.414 112.579C173.518 108.445 172.521 107.307 180.121 105.115C185.612 103.522 185.502 95.4679 188.094 90.4811C189.039 88.6607 190.24 89.3346 190.354 88.2305C190.812 83.5185 193.788 83.7235 194.62 81.6778C195.83 78.7267 202.037 74.2989 202.194 74.1924C205.024 72.3295 203.828 71.4546 207.152 69.0326C209.625 67.2445 218.523 72.5843 216.76 74.2492C215.878 75.0817 214.594 74.8704 213.679 75.4849C206.918 79.956 209.419 75.807 206.109 83.2125C201.649 86.4572 206.87 86.7871 200.337 89.7884C198.745 88.2595 199.36 89.1752 200.661 87.2799C201.264 86.4085 198.634 83.1597 199.609 88.7951C197.114 91.1183 197.784 91.4214 196.518 92.0575C196.348 92.1494 192.23 94.4451 193.319 95.6056C193.943 96.267 193.275 95.9374 195.743 96.1229C196.902 96.2156 193.479 99.4342 193.358 99.5843C191.436 101.651 193.974 102.541 191.018 104.755C190.325 105.283 188.964 106.071 187.075 109.981C184.488 115.358 180.991 112.191 179.797 117.024C179.46 118.362 177.726 118.083 177.658 118.238C175.346 122.525 176.782 117.835 173.58 127.144C173.071 128.602 171.287 127.404 170.54 129.256C166.01 140.458 160.309 132.9 163.318 138.318L163.338 138.105C158.33 142.495 160.842 145.129 155.755 148.034C150.201 151.205 156.372 152.737 153.501 155.2C144.7 162.748 153.572 162.204 144.034 170.463C143.145 171.227 141.552 171.176 141.133 170.17C139.136 165.14 138.625 169.108 139.177 170.126C142.232 175.629 141.673 170.878 137.688 181.552C134.943 188.955 131.305 189.965 130.964 193.694C130.881 194.6 130.343 195.343 129.679 195.994C127.174 198.424 125.554 205.997 120.238 212.588C119.601 213.389 119.351 214.065 119.847 214.956L119.869 214.716C115.828 218.08 120.292 219.778 118.922 223.305C116.249 230.205 113.606 228.862 112.959 232.845C112.65 234.75 111.157 237.568 111.687 238.677C112.589 240.56 112.133 242.465 111.836 245.271C110.837 254.862 119.183 264.771 134.185 252.137C143.948 243.912 144.772 243.571 144.052 241.168C146.554 235.247 146.897 236.487 147.63 233.318C149.502 225.337 154.413 228.607 155.24 223.096C155.449 221.692 154.023 220.688 154.302 219.25C155.084 215.253 152.094 214.764 153.86 212.925C156.62 210.062 154.501 206.954 158.756 206.389C160.129 206.206 160.906 206.667 161.606 205.321C163.628 201.423 167.518 204.559 165.36 199.957C165.47 198.758 167.19 197.13 165.336 196.409C163.196 195.582 163.037 193.648 164.057 192.183C168.681 185.529 168.805 185.352 169.299 185.827C169.434 185.96 171.84 188.732 172.274 187.953C173.025 186.638 177.207 181.73 175.152 181.3C169.222 180.059 176.893 172.542 177.744 170.431C182.643 158.431 181.549 169.356 186.449 159.544C185.797 159.471 187.143 160.172 188.056 159.584C189.781 158.493 186.642 155.52 190.748 158.058C191.295 158.39 192.261 157.807 192.462 157.516C193.415 156.207 190.117 156.147 191.164 153.355C192.724 149.227 190.91 149.532 202.926 140.317C203.808 139.633 203.862 138.308 204.969 137.805C205.78 137.449 206.725 137.254 207.367 136.695C212.593 132.124 227.631 139.341 223.579 140.179C219.966 140.923 218.601 144.397 216.545 143.081C217.91 140.493 215.638 142.138 216.758 143.1L216.742 142.991ZM180.514 179.937C181.454 178.613 179.848 178.842 180.727 179.957C179.779 181.361 181.252 180.972 180.514 179.937ZM181.652 200.225C178.464 203.224 183.261 202.159 181.652 200.225C180.639 198.682 185.403 196.661 181.652 200.225ZM112.454 222.66C114.001 224.104 116.739 220.446 115.046 220.896C114 221.176 113.169 221.892 112.454 222.66C111.549 221.986 110.878 222.421 110.306 223.094C109.642 223.893 111.06 224.976 111.516 224.4C111.884 223.897 112.146 223.236 112.466 222.674L112.454 222.66ZM185.913 169.513C182.596 167.303 182.424 171.679 183.765 172.432C185.056 173.155 187.398 171.771 185.913 169.513ZM169.18 190.208C168.579 191.2 169.61 191.818 170.16 191.68C170.724 191.531 172.338 190.335 169.18 190.208ZM156.892 212.517C155.458 214.253 159.105 214.022 158.452 212.942C157.997 212.189 157.602 212.099 156.892 212.517ZM122.298 197.266C117.623 200.222 122.296 199.777 122.53 197.811C122.554 197.692 122.433 197.547 122.298 197.266ZM161.597 208.798C161.575 209.481 161.282 209.159 162.529 210.065C162.565 209.37 162.873 209.68 161.597 208.798ZM118.024 204.785C116.697 204.61 116.086 206.447 117.949 205.315C118.036 205.242 118.01 204.945 118.024 204.785ZM132.197 184.179C130.989 183.437 130.232 186.429 132.26 184.668C132.333 184.607 132.299 184.242 132.197 184.179ZM135.296 172.913C134.567 172.954 134.88 172.62 134.043 173.98C134.758 173.952 134.445 174.286 135.296 172.913ZM184.103 107.681C184.706 107.548 184.655 107.665 184.37 107.263L184.103 107.681ZM171.524 119.382C171.344 120.319 172.208 120.264 172.039 119.47C172.032 119.402 171.696 119.411 171.524 119.382ZM152.754 136.949C152.751 137.419 152.662 137.37 153.076 137.099L152.754 136.949ZM197.881 83.4668C197.817 84.307 198.614 84.4067 198.353 83.5905C198.334 83.5082 198.038 83.5081 197.881 83.4668ZM164.413 129.287C163.839 129.395 163.905 129.267 164.176 129.681L164.413 129.287ZM171.555 123.588C171.56 123.092 171.635 123.152 171.224 123.397L171.555 123.588ZM155.512 142.036C154.996 142.096 155.032 141.992 155.264 142.389L155.512 142.036ZM141.739 161.792C141.857 162.407 141.741 162.356 142.17 162.073L141.739 161.792ZM128.734 188.857C129.281 188.746 129.218 188.848 128.996 188.492L128.734 188.857ZM200.352 151.859C200.323 152.326 200.248 152.266 200.674 152.01L200.352 151.859ZM172.074 193.212C171.44 193.1 171.585 192.979 171.418 193.635C172.079 193.75 171.907 193.868 172.074 193.212ZM109.274 249.495C109.155 248.88 109.269 248.958 108.869 249.217L109.274 249.495Z" fill="#FFD400"/>
<path d="M226.851 320.482C226.847 322.281 225.314 323.779 225.894 325.659C226.184 326.598 222.143 330.257 221.05 331.044C214.986 335.377 215.884 312.066 220.834 310.504C221.692 310.234 221.483 311.195 221.437 310.372C221.315 308.628 222.454 306.892 221.401 305.185C220.441 303.646 221.472 301.337 223.74 301.786C225.27 302.087 224.623 302.847 227.272 298.846C227.381 298.681 227.324 298.139 226.616 298.531C223.346 300.367 222.951 297.645 221.899 299.751C220.684 302.165 219.206 299.827 217.596 303.48C217.22 304.359 216.624 304.412 215.38 303.922C215.263 305.053 215.815 300.631 214.066 301.989C210.754 304.573 212.882 305.976 208.176 308.097C204.94 309.561 202.673 310.414 201.155 309.684C193.478 305.96 191.468 310.463 189.828 303.733C188.369 297.811 187.427 298.424 187.874 295.443C187.983 294.687 187.613 294.479 186.627 294.536C184.765 294.635 185.397 295.216 187.313 289.536C186.472 286.841 188.727 284.939 189.121 282.544C189.238 281.857 198.298 279.261 192.703 276.856C191.101 276.172 190.797 277.433 190.022 279.014C188.477 282.096 185.64 280.816 185.617 279.605C185.589 277.561 190.224 268.437 186.767 270.108C185.278 270.831 184.427 272.056 183.163 271.484C179.924 270.046 180.443 273.921 174.72 274.525C172.795 274.725 168.825 276.578 164.981 273.97C163.514 272.977 160.44 271.648 157.981 272.242C156.429 272.624 155.24 269.184 158.308 268.23C163.271 266.683 158.143 270.041 166.992 272.247C170.59 273.14 168.628 269.631 178.659 267.876C182.112 267.265 181.534 262.284 186.144 264.008C187.144 264.382 188.762 263.576 187.372 259.393C186.047 255.378 195.123 250.998 196.776 248.933C196.897 248.783 210.162 226.791 210.259 226.612C212.191 223.109 213.791 224.115 214.728 220.186C215.18 218.333 216.052 216.869 217.688 215.877C218.256 216.56 218.825 217.243 219.423 217.902C221.918 220.722 223.587 211.287 217.666 216.117C217.236 213.62 219.118 213.308 219.727 211.35C220.418 209.076 223.242 208.301 223.655 206.875C224.601 203.577 227.895 202.361 228.765 200.775C231.555 195.673 237.524 196.339 242.842 199.713C244.454 200.734 241.041 203.403 239.032 205.394C237.69 206.709 240.443 207.001 239.573 207.995C239.125 208.492 238.647 209.307 238.148 209.329C236.272 209.439 234.854 210.693 233.123 211.125C229.192 212.108 228.012 217.668 229.525 218.303C231.011 218.936 230.378 221.161 229.636 222.369C226.743 226.992 222.583 225.484 222.025 227.917C220.721 233.653 217.441 232.077 216.511 236.074C215.756 239.335 213.305 241.327 212.799 244.651C212.762 244.903 209.919 254.554 205.539 257.953C202.518 260.296 205.333 262.554 203.159 261.805C201.779 261.329 201.856 261.363 200.933 262.353C200.38 262.961 202.504 262.497 202.089 264.984C201.943 265.843 201.132 266.494 201.286 267.448C205.448 268.782 191.576 287.415 196.981 304.669C197.305 305.679 200.796 306.858 203.155 305.583C204.822 304.688 213.156 297.111 215.898 294.878C221.427 290.375 214.998 294.151 226.995 280.745C231.691 275.508 233.468 275.603 233.962 271.969C235.119 263.278 241.104 261.127 239.654 260.094C238.809 259.493 238.318 258.844 239.309 257.995C240.414 257.075 240.42 255.545 241.292 254.523C242.269 253.391 243.821 252.566 243.548 251.44C242.828 248.446 247.319 241.485 249.486 239.091C252.277 236.029 250.542 233.118 256.458 229.523C259.132 227.887 269.349 230.554 266.968 232.955C265 234.937 263.581 235.774 263.354 237.661C262.97 240.54 261.406 240.907 259.513 242.949C256.397 246.33 263.717 247.792 256.895 253.373C250.622 258.519 254.103 260.248 249.926 265.103C247.643 267.741 250.847 267.658 244.331 271.212C244.881 271.222 243.14 270.727 242.287 271.683C242.154 271.818 241.848 272.811 244.194 273.147C246.801 278.851 239.694 279.772 238.499 285.786C238.419 286.222 237.239 286.49 237.205 286.863C237.166 287.437 237.686 288.062 237.981 288.653C237.954 289.241 235.185 296.616 235.114 297.24C235.041 297.892 236.259 302.636 234.319 303.439C226.602 306.614 233.287 308.85 230.818 310.142C228.379 311.41 226.49 311.653 227.375 314.017C229.759 320.399 226.971 317.109 226.994 320.535L226.851 320.482ZM217.976 223.585C210.748 222.735 214.728 228.7 215.846 227.056C218.167 223.696 217.707 224.326 217.976 223.585ZM249.721 247.089C253.672 247.639 252.367 244.001 250.807 244.906C250.097 245.324 248.217 246.791 249.721 247.089ZM225.811 288.251C226.4 287.835 226.681 286.813 226.255 286.774C223.94 286.536 223.357 289.974 225.811 288.251ZM241.798 267.193C241.118 267.144 241.44 266.851 240.587 268.103C241.253 268.164 240.957 268.459 241.798 267.193ZM260.316 232.266C258.698 232.924 258.894 234.312 260.415 232.651C260.473 232.603 260.357 232.404 260.316 232.266ZM196.254 267.995C197.634 267.879 197.244 268.18 197.715 266.853C196.361 266.971 196.681 266.704 196.254 267.995ZM246.438 249.502C246.419 248.976 246.509 249.025 246.065 249.32L246.438 249.502ZM253.219 248.779C252.681 248.784 252.744 248.682 253.049 249.167L253.219 248.779Z" fill="#FFD400"/>
<path d="M144.538 39.6016C144.803 37.8801 143.575 38.5333 149.177 33.5264C152.76 30.3224 151.717 28.508 155.519 28.1978C156.696 28.1041 157.492 25.5717 157.822 24.4604C158.494 22.2524 161.77 18.8858 163.592 20.3955C164.878 21.4665 165.446 22.7407 167.519 22.3932C169.333 22.0891 170.036 23.9394 169.236 25.6389C168.269 27.699 165.781 28.4653 164.812 30.5521C164.276 31.7117 162.08 30.4633 160.52 31.8111C158.039 33.9746 148.725 35.674 159.007 39.8377C158.045 41.106 159.464 41.0075 158.794 39.8182C159.879 38.964 162.008 37.2654 162.008 37.2654C163.299 37.5446 163.185 37.6147 163.07 36.382C163.031 36.8082 163.673 36.1016 164.288 36.2787C165.82 36.701 164.89 38.3615 163.695 39.3802C159.85 42.6543 161.552 44.1664 159.594 46.0419C154.443 50.9692 155.613 51.1031 154.663 51.352C149.812 52.7076 150.058 57.9407 144.754 56.7704C149.395 53.5961 146.202 52.8339 146.012 53.1389C143.109 57.5734 147.835 54.6484 139.218 61.3535C135.126 64.5378 137.994 63.7259 132.833 68.9074C130.616 71.1218 130.246 77.9502 141.162 66.9701C140.748 66.9456 143.435 67.5139 143.408 67.9546C143.057 71.6423 143.256 75.0448 141.32 73.753C139.65 72.6333 139.699 71.8051 137.332 73.6029C133.998 76.1315 135.704 77.7379 132.839 78.2278C129.742 78.7636 131.199 92.044 122.883 81.9633C121.515 80.3207 120.977 82.5409 119.233 86.0341C118.477 87.5496 121.167 87.7958 121.963 88.191C124.171 89.3062 126.366 88.3654 128.528 88.0663C129.318 87.9506 129.965 87.0428 130.733 86.5759C133.831 84.7107 135.056 89.9661 131.036 90.6055C130.367 90.7189 129.52 90.7355 129.299 91.3868C128.542 93.493 126.464 94.9278 126.286 97.3153C126.154 99.1967 124.174 97.9413 123.453 99.5003C122.552 101.432 123.082 105.321 119.373 108.433C116.638 110.735 120.074 111.197 118.008 115.278C116.5 118.256 116.671 115.948 113.684 122.027C111.493 126.459 108.786 125.218 107.995 127.402C105.868 133.331 101.803 132.999 101.495 137.241C101.407 138.643 99.8446 140.018 98.8053 140.957C96.4043 143.128 99.4644 144.025 95.5951 147.714C95.2705 148.033 94.9314 148.217 94.9238 148.74C94.8424 151.244 92.9284 153.231 92.9632 155.785C92.2965 157.202 91.0221 158.213 90.5296 159.78C90.1317 161.046 89.6226 162.355 88.8156 163.396C85.9003 167.225 89.1101 168.983 82.0319 177.655C80.9161 176.64 79.681 176.93 78.453 177.435C77.1281 177.972 78.5 180.004 79.3576 179.438C80.2587 178.836 81.1428 178.272 82.0319 177.655C83.6295 182.797 75.0449 187.826 77.3457 191.3C78.4175 192.942 76.8001 196.676 75.0536 197.711C73.1932 198.816 74.2063 201.394 71.579 201.341C70.051 201.309 69.98 202.82 69.1555 204.933C68.8038 205.841 67.6978 204.867 67.7076 204.613C68.0792 198.496 68.0771 197.784 69.1165 196.845C70.8149 195.309 68.5483 195.424 68.498 194.506C68.2135 188.222 70.8741 189.526 72.809 185.11C74.2177 181.895 71.7862 182.344 71.5786 181.238C70.8616 177.479 66.7904 182.639 63.975 181.12C62.1207 180.104 61.4085 180.844 60.7306 180.621C59.8058 180.308 55.2089 177.564 54.6064 176.663C53.1039 174.444 55.8784 175.383 54.4009 167.607C54.1861 166.432 54.5293 163.415 56.4688 163.499C60.1059 163.67 59.1064 158.597 64.0575 155.853C64.651 155.532 64.8903 156.145 64.677 156.42C62.3288 159.482 64.2902 159.621 64.3664 161.871C64.4665 164.593 57.0054 169.524 59.8591 171.651C61.0524 172.553 60.2739 170.494 62.1388 169.926C63.1051 169.639 64.0113 172.944 62.9667 174.528C60.9285 177.577 64.1781 181.984 73.0437 172.858C74.3933 171.464 73.5775 170.838 75.9617 168.411C78.1229 166.218 75.7098 164.265 76.7858 162.779C76.1054 162.73 77.5411 163.184 77.747 163.136C79.1832 162.703 81.097 161.159 81.0956 159.413C81.0994 157.023 80.166 158.858 77.8194 159.261C77.7141 157.036 81.0909 150.952 83.651 141.612C85.1046 136.292 87.6972 137.456 88.1881 134.439C89.1845 128.246 88.8453 128.577 90.3665 127.803C92.6627 126.63 90.4559 124.038 94.3219 117.596C95.5072 115.65 98.3571 115.911 97.6947 114.051C96.6575 111.149 100.171 107.536 101.022 105.72C101.439 104.832 102.211 106.232 104.283 102.809C105.311 101.117 103.023 100.585 104.167 98.3534C107.743 91.4154 108.589 89.8008 111.337 89.2599C114.483 88.6346 110.173 84.2249 115.399 79.3583C116.354 78.4653 120.439 70.2175 127.34 61.1263C128.104 60.1218 129.777 60.9194 130.894 58.3896C133.111 53.3953 137.237 44.6947 142.739 44.1506C143.986 44.023 143.635 40.5262 144.548 39.3474C147.18 40.5282 145.423 38.4472 144.531 39.5339L144.538 39.6016ZM110.262 110.111C111.671 111.005 111.391 109.664 110.243 110.324C108.706 108.921 106.461 112.906 110.262 110.111ZM127.428 69.5678C128.743 68.399 127.938 66.1901 127.066 66.916C125.83 67.9445 126.489 68.5284 127.428 69.5678C126.81 70.1559 126.87 70.8194 127.252 71.4855C125.493 72.5064 120.333 77.2447 123.555 78.869C124.698 79.4436 125.294 77.6181 127.511 72.6238C127.629 72.3527 127.378 71.873 127.264 71.5001C127.841 70.9216 127.887 70.2679 127.44 69.5824L127.428 69.5678ZM150.556 48.6931C149.829 49.298 149.087 49.9151 148.361 50.5201C147.146 49.2674 146.762 50.9647 148.395 50.2949C149.818 51.6203 149.636 51.8455 150.922 51.2917C152.055 50.7911 150.976 49.6717 150.33 48.6591C151.807 45.8801 149.355 47.7238 150.543 48.6785L150.556 48.6931ZM112.52 117.139C113.167 116.97 113.932 116.973 114.331 116.567C115.783 115.088 116.421 113.253 116.076 111.153C115.6 108.276 108.211 113.737 112.534 117.128C108.934 120.518 113.654 119.271 112.534 117.128L112.52 117.139ZM94.2254 133.77C90.1179 134.777 92.3282 135.866 91.4405 138.376C90.9506 139.768 94.1316 141.254 94.9435 140.013C95.7699 138.759 92.5255 137.965 95.312 134.957C97.7859 132.282 97.2241 132.258 94.2399 133.758L94.2254 133.77ZM111.816 95.4811C108.952 93.3122 106.273 99.8487 106.292 100.079C106.314 100.43 112.493 100.995 111.816 95.4811ZM113.689 105.684C115.937 107.823 118.295 105.394 118.764 102.321C119.233 99.2484 111.91 103.99 113.689 105.684ZM88.5929 142.198C88.6255 144.484 82.499 144.662 88.4694 146.632C89.3288 146.925 90.9882 145.667 90.8507 144.822C89.9699 139.625 88.5649 140.302 88.5929 142.198ZM121.179 92.3628C114.877 97.9771 122.254 97.6447 122.72 95.1895C122.873 94.3978 123.121 92.4195 122.388 92.0704C122.092 91.9225 121.579 92.2516 121.179 92.3628ZM105.145 124.213C99.4254 119.5 100.823 127.86 104.931 124.785C105.062 124.676 105.072 124.422 105.145 124.213ZM155.083 42.2182C152.4 42.0399 151.7 46.6089 152.85 46.0695C153.775 45.6439 155.123 43.2426 155.083 42.2182ZM100.372 120.017C99.2026 119.587 99.3204 121.089 99.5115 121.496C99.8501 122.198 101.543 121.305 100.372 120.017ZM136.881 60.7637C133.555 58.9553 135.313 63.6687 136.866 61.3668C136.973 61.2288 136.877 60.9647 136.881 60.7637ZM107.985 116.51C105.663 116.351 104.889 119.087 106.695 118.42C107.543 118.108 108.299 116.888 107.985 116.51ZM127.538 79.0722C125.785 79.7444 126.137 81.1734 127.623 79.4695C127.681 79.4211 127.579 79.2103 127.538 79.0722ZM83.9431 155.591C83.9549 156.049 83.88 155.988 84.2481 155.78L83.9431 155.591ZM99.0395 129.443C99.0156 128.97 99.1051 129.019 98.7223 129.239L99.0395 129.443ZM109.477 106.36C109.935 106.348 109.887 106.437 109.681 106.042L109.477 106.36ZM156.822 44.1903C156.282 44.2215 156.358 44.1343 156.641 44.563L156.822 44.1903ZM153.068 38.1125C153.097 38.6792 152.98 38.6283 153.482 38.2847L153.068 38.1125Z" fill="#FFD400"/>
<path d="M301.104 269.651C299.586 268.922 296.985 270.053 296.837 270.496C295.847 273.535 293.375 273.107 291.739 276.315C291.346 277.084 292.442 278.461 293.031 277.158C293.751 275.599 294.105 275.108 296.766 275.526C300.459 276.119 292.145 280.824 291.159 286.911C290.78 289.294 288.923 287.271 288.503 290.401C285.639 293.228 288.598 293.176 287.337 296.391C284.725 303.068 280.791 301.594 284.137 306.56L284.157 306.347C282.253 310.712 282.317 309.133 278.263 313.516C273.507 318.681 279.986 319.341 277.856 322.369C277.209 323.277 275.935 323.549 275.571 324.738C275.006 326.661 275.472 328.906 274.195 330.535C271.394 334.146 266.896 335.01 273.091 334.677C275.478 334.56 272.938 339.578 270.661 340.834C270.223 341.075 270.123 342.02 271.288 341.468C277.263 338.685 274.854 342.708 273.171 346.421C273.086 346.615 269.954 348.41 269.795 351.766C269.476 358.331 272.128 357.378 266.17 355.866C264.294 355.386 265.352 350.124 265.797 348.352C266.049 347.354 267.945 346.736 267.178 345.578C265.659 343.25 266.108 341.572 266.598 335.037C266.83 332.063 269.063 332.469 268.854 329.616C268.762 328.413 267.377 324.472 270.188 321.345C272.223 319.06 269.708 317.487 270.407 315.577C272.231 310.614 271.275 308.284 274.967 306.54C277.534 305.338 271.943 305.834 275.593 298.956C277.181 295.986 277.333 292.414 279.255 289.609C280.913 287.196 279.493 284.367 279.518 284.1C282.125 281.586 281.289 282.355 285.29 271.938C286.333 269.2 285.73 268.594 285.755 268.328C288.735 265.256 287.569 266.842 292.118 256.756C293.818 253.004 292.692 252.538 292.96 249.609C293.243 246.371 296.147 248.53 297.283 245.223C298.551 241.485 300.407 244.542 302.817 243.742C303.621 243.466 307.928 245.123 310.509 249.495C310.903 250.176 310.842 250.842 306.564 257.675C306.203 258.246 305.404 258.026 304.857 257.546C305.822 256.399 304.267 256.216 305.085 257.553C298.798 263.008 303.572 260.436 303.775 261.153C305.14 266.046 304.321 263.701 302.662 267.739C302.059 269.201 300.402 269.547 301.104 269.651ZM296.633 263.776C293.724 264.894 293.901 267.649 295.066 267.098C299.247 265.144 299.087 265.129 298.805 263.519C298.503 261.826 297.427 262.869 296.647 263.764L296.633 263.776ZM288.745 285.549C288.757 286.154 288.643 286.077 289.174 285.709L288.745 285.549Z" fill="#FFD400"/>
<path d="M80.343 91.3125C79.58 87.6168 83.7236 82.8391 85.412 81.7044C87.0424 80.618 84.4586 80.3817 89.5434 72.8029C95.8229 63.4667 96.5119 69.7339 96.6847 64.1767C96.8423 59.5178 100.452 60.4255 100.855 58.8106C101.79 55.0553 104.662 50.0809 105.52 52.8855C106.687 56.7122 111.331 36.6308 119.787 31.9791C121.655 30.9413 125.684 22.863 133.599 20.3104C136.561 19.346 134.734 13.0417 145.505 13.6243C147.043 13.6978 147.409 15.8531 147.119 16.0951C146.484 16.5742 143.575 17.6913 142.788 17.6327C142.481 17.618 142.012 16.4336 141.917 16.1429C138.4 17.5938 143.177 19.2529 133.336 27.4441C132.595 28.0612 131.793 28.1624 132.162 27.2158C133.309 24.3664 129.94 25.0786 129.365 26.5167C129.067 27.2817 129.89 28.7134 128.794 29.6741C127.598 30.7195 126.786 31.9613 126.025 33.3823C125.326 34.7016 123.798 35.5556 122.891 36.8021C122.014 38.0245 120.615 41.4282 118.773 40.1317C118.27 39.7633 116.675 38.4087 116.73 39.1255C116.871 41.69 117.003 40.8425 113.876 49.3257C112.666 52.5723 111.053 53.0291 109.103 54.8247C106.963 56.7776 109.491 56.7404 106.149 62.1554C104.981 64.0629 102.689 65.035 101.814 67.2647C101.693 67.5625 101.053 67.6516 100.671 67.8718C95.4603 70.9538 95.4758 73.4262 93.6594 73.9046C91.3077 74.5086 90.0689 77.0408 90.063 78.8666C94.2112 78.5881 96.5547 75.4318 96.2656 76.9766C95.2892 82.0709 93.0624 80.4302 89.975 88.635C89.1965 90.6855 86.3216 91.7252 86.6399 93.9701C86.8039 95.1131 86.9436 96.2272 86.0302 97.1105C85.1895 97.9333 85.0919 99.1465 84.4352 100.013C83.902 100.703 82.9818 101.075 82.4486 101.765C81.9034 102.44 81.6703 103.372 81.2001 104.108C77.7683 109.327 75.3044 107.195 76.0373 108.578C77.4548 111.286 78.5222 112.095 77.2095 112.499C75.9259 112.878 74.2365 115.638 75.966 118.898C79.4859 120.496 71.0229 128.598 68.1398 131.195C63.8249 135.057 69.047 136.838 67.4113 138.864C64.4162 142.538 69.0292 142.611 66.2453 145.445C65.3124 146.393 64.0116 146.959 63.4345 148.276C62.3143 150.833 64.3708 149.933 65.5015 150.198C63.769 156.364 65.1369 152.568 56.898 158.368C55.333 159.473 56.41 156.215 56.4354 154.176C60.5386 152.188 54.1045 148.094 59.8074 143.593C61.1398 142.533 59.8747 140.363 60.999 139.23C62.4188 137.802 63.6979 136.738 62.3615 136.226C59.7517 135.249 66.3492 120.677 68.29 118.693C69.3125 117.645 67.4971 116.203 68.8704 115.724C71.5056 114.811 68.9566 113.02 71.6523 107.922C75.034 101.49 74.8108 98.2057 78.2207 97.4837C80.7684 96.9379 79.6665 92.9829 80.3844 91.1551C82.1392 92.5242 84.3351 88.7771 80.3793 91.3561L80.343 91.3125ZM71.936 124.049C76.6926 118.589 69.6082 116.907 69.4076 120.568C69.2486 123.333 69.3129 124.977 71.936 124.049ZM102.009 61.0245C100.424 63.3773 102.425 61.9087 102.706 61.6255C103.818 60.4784 102.649 60.1967 102.009 61.0245ZM133.862 22.2818C132.624 23.9277 134.552 23.2581 134.727 22.2266C134.775 21.9893 134.279 21.9842 133.862 22.2818ZM85.7961 87.6349C85.1181 87.5594 85.3046 87.4288 85.1105 88.0825C85.7643 88.1289 85.6044 88.2619 85.7961 87.6349ZM89.0396 81.5393C89.0714 81.0454 89.1584 81.1206 88.7054 81.3746L89.0396 81.5393Z" fill="#FFD400"/>
<path d="M254.747 302.823C254.282 299.692 257.817 299.949 258.841 296.537C259.071 295.779 264.745 295.412 262.611 292.316C262.35 291.943 262.251 291.558 262.711 291.224C265.155 289.46 266.314 286.773 267.609 284.219C269.892 279.661 272.005 281.667 271.905 283.202C269.862 285.714 272.9 287.443 270.422 290.023C267.315 293.297 269.813 295.204 265.936 295.897C262.427 296.53 264.835 299.275 263.439 300.584C260.163 303.655 262.976 306.235 259.659 309.611C254.626 314.711 256.429 320.838 252.063 321.446C249.411 321.807 250.046 324.551 248.312 324.863C244.871 325.488 246.488 327.489 243.801 329.405C238.442 333.226 240.769 334.661 234.086 333.875C231.122 333.536 231.014 336.186 228.419 334.605C226.461 333.405 225.359 332.969 226.142 332.047C227.678 330.227 233.881 328.189 234.457 328.054C237.397 327.329 237.856 329.358 238.671 327.647C240.947 322.873 237.607 325.334 240.491 320.817C240.961 320.081 242.454 321.52 243.535 320.572C247.595 316.995 250.981 321.239 250.654 316.738C250.573 317.764 251.166 314.367 252.935 312.944C256.283 310.256 252.507 307.641 259.525 302.119C260.465 301.386 259.541 299.744 254.762 302.811L254.747 302.823ZM236.326 329.648C235.609 329.556 235.795 329.425 235.635 330.149C236.352 330.241 236.18 330.36 236.326 329.648ZM268.34 288.409C267.85 289.21 268.693 289.394 268.912 288.474C268.725 288.457 268.539 288.44 268.34 288.409Z" fill="#FFD400"/>
<path d="M204.52 160.177C209.619 152.438 212.636 152.929 215.058 148.477C216.818 145.241 220.284 147.72 220.029 148.596C218.576 153.472 218.078 152.164 217.569 153.179C216.798 154.706 217.409 156.83 215.605 157.914C213.914 158.928 213.685 160.841 212.849 162.349C211.785 164.293 212.038 162.261 207.576 168.017C203.402 163.002 207.801 164.089 204.535 160.165L204.52 160.177ZM212.832 158.131C213.251 157.511 213.849 156.84 212.883 157.128C212.469 157.251 211.715 158.002 212.832 158.131Z" fill="#FFD400"/>
<path d="M207.562 168.029C207.955 169.449 207.163 170.625 206.78 171.879C204.793 173.779 204.336 176.57 202.758 178.696C202.133 179.511 200.676 179.002 200.591 178.457C199.918 173.776 198.515 175.46 199.166 172.901C200.251 168.529 197.302 166.997 198.196 165.883C200.751 162.773 202.496 158.662 204.532 160.191C204.513 159.961 201.325 165.888 203.218 166.182C204.596 166.388 205.392 167.522 206.537 168.07C206.731 168.155 208.164 168.192 207.559 168.056L207.562 168.029Z" fill="#FFD400"/>
<path d="M281.764 269.681C280.821 271.18 282.605 272.673 280.965 273.127C275.554 274.579 279.293 278.48 276.026 279.108C274.169 279.448 272.694 280.159 272.438 278.994C271.94 276.8 274.601 277.513 274.99 275.911C275.337 274.465 278.502 269.222 281.73 269.907L281.764 269.681Z" fill="#FFD400"/>
<path d="M141.147 66.982C140.157 66.502 136.942 65.3887 139.032 63.5254C140.833 61.904 142.532 62.9995 144.17 64.4654C144.238 64.1628 140.881 66.9577 141.132 66.9941L141.147 66.982Z" fill="#FFD400"/>
<path d="M269.867 356.997C271.121 357.675 272.901 356.858 272.848 357.444C272.746 358.415 271.352 359.993 269.217 359.26C267.147 358.547 270.55 357.019 269.882 356.984L269.867 356.997Z" fill="#FFD400"/>
<path d="M288.306 254.393C289.984 253.217 290.479 256.029 289.15 256.324C288.176 256.543 286.956 255.344 288.306 254.393Z" fill="#FFD400"/>
<path d="M283.441 263.241C283.329 262.841 283.013 262.342 283.158 262.074C283.796 260.829 284.946 260.142 286.235 259.71C288.063 259.098 283.189 263.205 283.441 263.241Z" fill="#FFD400"/>
<path d="M290.339 292.637C287.729 289.471 288.457 290.907 288.493 290.655C291.85 289.781 292.506 289.505 292.639 289.96C293.05 291.341 289.686 292.591 290.352 292.652L290.339 292.637Z" fill="#FFD400"/>
<path d="M144.183 64.4803C149.002 63.914 144.982 68.2196 144.576 66.195C144.146 64.1413 144.309 63.9815 144.183 64.4803Z" fill="#FFD400"/>
<path d="M136.525 83.6005C137.199 84.7366 135.908 85.4914 134.38 85.7544C135.069 84.3939 134.441 84.9409 136.525 83.6005Z" fill="#FFD400"/>
<path d="M282.359 313.085C284.028 315.386 278.304 313.802 281.206 312.765C281.664 312.605 282.071 312.71 282.359 313.085Z" fill="#FFD400"/>
<path d="M254.747 302.824C255.356 305.86 252.14 306.224 252.574 305.002C253.204 303.246 255.316 302.916 254.747 302.824Z" fill="#FFD400"/>
<path d="M268.037 233.738C269.009 233.102 270.804 232.567 268.892 234.823C267.959 235.92 266.715 234.691 268.037 233.738Z" fill="#FFD400"/>
<path d="M237.824 288.611C241.278 286.671 239.552 290.274 237.816 288.987L237.824 288.611Z" fill="#FFD400"/>
<path d="M283.242 263.209C283.444 265.994 281.524 265.254 282.525 264.151C283.468 263.096 283.627 263.258 283.242 263.209Z" fill="#FFD400"/>
<path d="M250.467 308.207C245.702 311.41 252.209 311.482 250.467 308.207V308.207Z" fill="#FFD400"/>
<path d="M268.565 297.104C269.233 297.286 268.308 298.155 268.099 298.23C266.864 298.668 267.623 296.83 268.565 297.104Z" fill="#FFD400"/>
<path d="M300.906 269.62C301.803 271.85 297.865 272.914 301.104 269.651L300.906 269.62Z" fill="#FFD400"/>
<path d="M96.1642 76.3227C96.1014 76.1289 95.3396 74.4746 96.715 74.4124C98.7903 74.3337 95.8471 76.2668 96.1642 76.3227Z" fill="#FFD400"/>
<path d="M268.772 362.362C269.021 362.721 268.125 362.974 267.975 362.705C267.24 361.349 267.826 360.959 268.772 362.362Z" fill="#FFD400"/>
<path d="M200.362 89.6696C201.182 90.537 199.995 90.885 200.163 90.2289C200.255 89.8076 200.735 89.7037 200.362 89.6696Z" fill="#FFD400"/>
<path d="M76.7954 162.82C76.2802 161.846 77.0312 161.566 76.8492 162.234C76.6696 162.876 76.3547 162.793 76.7954 162.82Z" fill="#FFD400"/>
<path d="M163.331 138.185C166.324 137.613 164.027 139.377 163.35 137.972L163.331 138.185Z" fill="#FFD400"/>
<path d="M162.035 37.2674C161.302 36.3274 162.375 35.4586 163.096 36.384C163.121 36.1177 161.754 37.2551 162.035 37.2674Z" fill="#FFD400"/>
<path d="M163.273 33.2848C163.747 33.5296 163.718 33.4061 163.277 33.6746L163.273 33.2848Z" fill="#FFD400"/>
<path d="M151.133 17.2813C151.392 16.7947 151.271 16.7972 151.566 17.2405L151.133 17.2813Z" fill="#FFD400"/>
<path d="M186.446 159.423C185.955 158.331 186.825 158.222 186.577 158.871C186.349 159.454 185.967 159.379 186.446 159.423Z" fill="#FFD400"/>
<path d="M284.149 306.575C285.232 306.043 285.299 306.922 284.672 306.73C284.164 306.563 284.193 306.095 284.149 306.575Z" fill="#FFD400"/>
<path d="M119.859 214.823C121.455 213.961 121.048 215.186 120.815 215.085C119.731 214.609 119.898 214.396 119.859 214.823Z" fill="#FFD400"/>
<path d="M290.139 292.632C290.787 293.618 289.746 293.845 289.981 293.182C290.18 292.623 290.591 292.674 290.139 292.632Z" fill="#FFD400"/>
<path d="M250.627 316.735C249.632 317.49 249.383 316.393 250.078 316.577C250.589 316.718 250.586 317.188 250.627 316.735Z" fill="#FFD400"/>
<path d="M171.665 185.063C171.241 184.85 171.258 184.959 171.685 184.702L171.665 185.063Z" fill="#FFD400"/>
<path d="M249.301 310.974C250.221 311.783 249.061 312.576 248.821 312.111C248.557 311.617 248.86 310.947 249.301 310.974Z" fill="#FFD400"/>
<path d="M165.387 199.811C164.113 200.971 163.487 198.563 165.409 199.572L165.387 199.811Z" fill="#FFD400"/>
<path d="M279.537 283.887C277.484 284.464 277.741 283.857 278.404 283.649C279.54 283.269 279.455 284.645 279.537 283.887Z" fill="#FFD400"/>
<path d="M275.16 286.669C275.514 286.178 275.393 286.18 275.64 286.565L275.16 286.669Z" fill="#FFD400"/>
<path d="M250.468 308.207C249.548 307.545 250.629 306.301 250.834 307.139C251.078 308.142 249.894 308.168 250.468 308.207Z" fill="#FFD400"/>
<path d="M271.886 283.415C272.772 282.677 273.13 283.61 272.457 283.481C271.956 283.381 271.91 283.001 271.886 283.415Z" fill="#FFD400"/>
<path d="M228.438 317.807C229.371 317.154 229.68 318.029 229.01 317.873C228.378 317.735 228.465 317.367 228.438 317.807Z" fill="#FFD400"/>
<path d="M148.077 252.804C147.732 253.188 147.229 253.263 146.967 252.89C146.825 252.689 147.171 252.13 147.288 251.738C147.034 251.728 148.079 253.072 148.077 252.804Z" fill="#FFD400"/>
<path d="M285.772 268.141C284.658 268.428 284.74 268.557 284.772 267.915C285.961 268.427 285.748 268.407 285.772 268.141Z" fill="#FFD400"/>
<path d="M281.744 269.894C282.873 269.299 282.892 270.268 282.279 270.064C281.771 269.897 281.803 269.403 281.744 269.894Z" fill="#FFD400"/>
<path d="M215.351 303.946C214.471 304.9 213.794 303.79 214.281 303.607C215.295 303.23 215.283 304.544 215.351 303.946Z" fill="#FFD400"/>
<path d="M244.188 271.159C244.582 271.839 244.563 272.496 244.051 273.093C242.788 271.487 244.873 271.154 244.188 271.159Z" fill="#FFD400"/>
</svg>
